<svg width="1264" height="611" viewBox="0 0 1264 611" fill="none" xmlns="http://www.w3.org/2000/svg">
<g id="logo-found" clip-path="url(#clip0_1_2)">
<rect width="1264" height="611" fill="white"/>
<rect id="whiterect2" width="1264" height="611" fill="white"/>
<rect id="bluerect2" width="1264" height="611" fill="#24323E"/>
<path id="ahoylogo3" d="M336.5 342C330.833 336.833 318.554 325.436 317 306.5C315.851 292.5 305 277.444 286 278.5C277 279 260 286.4 260 308C260 329.6 277.5 336 288 336C299.5 336 306.839 330.731 313.5 320C321.569 307 309.5 297 328 272L298.5 246.5" stroke="#E0B562" stroke-width="19"/>
<g id="ahoyconnect3">
<path id="A" d="M428.08 336.66L423.57 324.95H396.5L391.99 336.66H375L401.88 272.35H418.1L444.98 336.67H428.08V336.66ZM410.03 290.2L401.87 311.32H418.29L410.03 290.2V290.2Z" fill="white"/>
<path id="h" d="M499.41 307.1V336.67H484.15V310.37C484.15 304.71 480.79 300.87 475.8 300.87C469.85 300.87 465.91 305 465.91 314.31V336.68H450.55V267.55H465.91V293.08C469.65 289.24 474.65 287.03 480.79 287.03C491.93 287.03 499.41 295 499.41 307.09V307.1Z" fill="white"/>
<path id="o" d="M559.89 312.57C559.89 327.83 547.79 338.01 533.49 338.01C519.19 338.01 506.8 327.84 506.8 312.57C506.8 297.3 518.9 287.23 533.49 287.23C548.08 287.23 559.89 297.41 559.89 312.57V312.57ZM545.11 312.57C545.11 305.08 539.45 300.09 533.49 300.09C527.53 300.09 521.59 305.08 521.59 312.57C521.59 320.06 527.25 325.05 533.49 325.05C539.73 325.05 545.11 320.15 545.11 312.57V312.57Z" fill="white"/>
<path id="y" d="M590.04 352.98H573.43L581.21 335.03L561.24 288.38H577.75L589.17 316.51L601.36 288.38H617.87L590.03 352.98H590.04Z" fill="white"/>
<path id="C" d="M690.72 311.82C687.65 328.45 674.29 338.15 657.26 338.15C637.56 338.15 622.02 323 622.02 303.5C622.02 284 637.56 268.85 657.26 268.85C673.59 268.85 687.45 278.55 690.62 294.29L674.58 298.05C672.5 288.45 665.77 283.79 657.26 283.79C646.77 283.79 638.35 292.21 638.35 303.49C638.35 314.77 646.77 323.29 657.26 323.29C665.67 323.29 672.41 318.54 674.68 308.64L690.72 311.81V311.82Z" fill="white"/>
<path id="o2" d="M749.67 312.57C749.67 327.83 737.57 338.01 723.27 338.01C708.97 338.01 696.58 327.84 696.58 312.57C696.58 297.3 708.68 287.23 723.27 287.23C737.86 287.23 749.67 297.41 749.67 312.57V312.57ZM734.89 312.57C734.89 305.08 729.23 300.09 723.27 300.09C717.31 300.09 711.37 305.08 711.37 312.57C711.37 320.06 717.03 325.05 723.27 325.05C729.51 325.05 734.89 320.15 734.89 312.57V312.57Z" fill="white"/>
<path id="n" d="M806.5 307.1V336.67H791.24V310.37C791.24 304.71 787.88 300.87 782.99 300.87C776.94 300.87 773.01 305 773.01 314.31V336.68H757.65V288.48H773.01V293.09C776.66 289.25 781.75 287.04 787.79 287.04C799.02 287.04 806.51 295.01 806.51 307.1H806.5Z" fill="white"/>
<path id="n2" d="M865.83 307.1V336.67H850.57V310.37C850.57 304.71 847.21 300.87 842.32 300.87C836.27 300.87 832.34 305 832.34 314.31V336.68H816.98V288.48H832.34V293.09C835.99 289.25 841.08 287.04 847.12 287.04C858.35 287.04 865.84 295.01 865.84 307.1H865.83Z" fill="white"/>
<path id="e" d="M923.52 316.51H888.19C889.44 322.27 893.37 325.82 898.56 325.82C902.11 325.82 906.24 324.96 908.83 320.25L922.46 323.03C918.33 333.2 909.6 338.1 898.56 338.1C884.64 338.1 873.12 327.83 873.12 312.57C873.12 297.31 884.64 287.04 898.65 287.04C912.66 287.04 923.22 296.83 923.51 312.57V316.51H923.52ZM888.48 307.1H908.35C906.91 301.92 903.07 299.52 898.65 299.52C894.23 299.52 889.91 302.21 888.48 307.1Z" fill="white"/>
<path id="c2" d="M965.09 316.22L979.2 319.29C976.8 330.71 966.62 338.1 954.63 338.1C940.23 338.1 928.33 327.83 928.33 312.57C928.33 297.31 940.23 287.04 954.63 287.04C966.34 287.04 976.52 294.24 979.2 305.57L964.8 309.03C963.46 303.17 959.52 300.49 954.63 300.49C947.72 300.49 943.11 305.58 943.11 312.58C943.11 319.58 947.72 324.68 954.63 324.68C959.53 324.68 963.46 322.09 965.09 316.23V316.22Z" fill="white"/>
<path id="t" d="M1022.88 334.55C1019.14 336.57 1015.2 338.1 1009.73 338.1C997.73 338.1 990.53 331.57 990.53 318.9V300.66H981.79V288.47H990.53V274.26H1005.89V288.47H1020.1V300.66H1005.89V317.36C1005.89 322.35 1008.29 324.37 1012.32 324.37C1014.43 324.37 1017.31 323.6 1019.33 322.45L1022.88 334.54V334.55Z" fill="white"/>
</g>
<rect id="yellowrect1" width="1264" height="611" fill="#E0B562"/>
<path id="ahoylogo2" d="M336.5 342C330.833 336.833 318.554 325.436 317 306.5C315.851 292.5 305 277.444 286 278.5C277 279 260 286.4 260 308C260 329.6 277.5 336 288 336C299.5 336 306.839 330.731 313.5 320C321.569 307 309.5 297 328 272L298.5 246.5" stroke="#24323E" stroke-width="19"/>
<rect id="whiterect1" y="-2" width="1264" height="611" fill="white"/>
<g id="ahoyconnect2">
<path id="A_2" d="M428.08 336.66L423.57 324.95H396.5L391.99 336.66H375L401.88 272.35H418.1L444.98 336.67H428.08V336.66ZM410.03 290.2L401.87 311.32H418.29L410.03 290.2V290.2Z" fill="#24323E"/>
<path id="h_2" d="M499.41 307.1V336.67H484.15V310.37C484.15 304.71 480.79 300.87 475.8 300.87C469.85 300.87 465.91 305 465.91 314.31V336.68H450.55V267.55H465.91V293.08C469.65 289.24 474.65 287.03 480.79 287.03C491.93 287.03 499.41 295 499.41 307.09V307.1Z" fill="#24323E"/>
<path id="o_2" d="M559.89 312.57C559.89 327.83 547.79 338.01 533.49 338.01C519.19 338.01 506.8 327.84 506.8 312.57C506.8 297.3 518.9 287.23 533.49 287.23C548.08 287.23 559.89 297.41 559.89 312.57V312.57ZM545.11 312.57C545.11 305.08 539.45 300.09 533.49 300.09C527.53 300.09 521.59 305.08 521.59 312.57C521.59 320.06 527.25 325.05 533.49 325.05C539.73 325.05 545.11 320.15 545.11 312.57V312.57Z" fill="#24323E"/>
<path id="y_2" d="M590.04 352.98H573.43L581.21 335.03L561.24 288.38H577.75L589.17 316.51L601.36 288.38H617.87L590.03 352.98H590.04Z" fill="#24323E"/>
<path id="C_2" d="M690.72 311.82C687.65 328.45 674.29 338.15 657.26 338.15C637.56 338.15 622.02 323 622.02 303.5C622.02 284 637.56 268.85 657.26 268.85C673.59 268.85 687.45 278.55 690.62 294.29L674.58 298.05C672.5 288.45 665.77 283.79 657.26 283.79C646.77 283.79 638.35 292.21 638.35 303.49C638.35 314.77 646.77 323.29 657.26 323.29C665.67 323.29 672.41 318.54 674.68 308.64L690.72 311.81V311.82Z" fill="#24323E"/>
<path id="o2_2" d="M749.67 312.57C749.67 327.83 737.57 338.01 723.27 338.01C708.97 338.01 696.58 327.84 696.58 312.57C696.58 297.3 708.68 287.23 723.27 287.23C737.86 287.23 749.67 297.41 749.67 312.57V312.57ZM734.89 312.57C734.89 305.08 729.23 300.09 723.27 300.09C717.31 300.09 711.37 305.08 711.37 312.57C711.37 320.06 717.03 325.05 723.27 325.05C729.51 325.05 734.89 320.15 734.89 312.57V312.57Z" fill="#24323E"/>
<path id="n_2" d="M806.5 307.1V336.67H791.24V310.37C791.24 304.71 787.88 300.87 782.99 300.87C776.94 300.87 773.01 305 773.01 314.31V336.68H757.65V288.48H773.01V293.09C776.66 289.25 781.75 287.04 787.79 287.04C799.02 287.04 806.51 295.01 806.51 307.1H806.5Z" fill="#24323E"/>
<path id="n2_2" d="M865.83 307.1V336.67H850.57V310.37C850.57 304.71 847.21 300.87 842.32 300.87C836.27 300.87 832.34 305 832.34 314.31V336.68H816.98V288.48H832.34V293.09C835.99 289.25 841.08 287.04 847.12 287.04C858.35 287.04 865.84 295.01 865.84 307.1H865.83Z" fill="#24323E"/>
<path id="e_2" d="M923.52 316.51H888.19C889.44 322.27 893.37 325.82 898.56 325.82C902.11 325.82 906.24 324.96 908.83 320.25L922.46 323.03C918.33 333.2 909.6 338.1 898.56 338.1C884.64 338.1 873.12 327.83 873.12 312.57C873.12 297.31 884.64 287.04 898.65 287.04C912.66 287.04 923.22 296.83 923.51 312.57V316.51H923.52ZM888.48 307.1H908.35C906.91 301.92 903.07 299.52 898.65 299.52C894.23 299.52 889.91 302.21 888.48 307.1Z" fill="#24323E"/>
<path id="c2_2" d="M965.09 316.22L979.2 319.29C976.8 330.71 966.62 338.1 954.63 338.1C940.23 338.1 928.33 327.83 928.33 312.57C928.33 297.31 940.23 287.04 954.63 287.04C966.34 287.04 976.52 294.24 979.2 305.57L964.8 309.03C963.46 303.17 959.52 300.49 954.63 300.49C947.72 300.49 943.11 305.58 943.11 312.58C943.11 319.58 947.72 324.68 954.63 324.68C959.53 324.68 963.46 322.09 965.09 316.23V316.22Z" fill="#24323E"/>
<path id="t_2" d="M1022.88 334.55C1019.14 336.57 1015.2 338.1 1009.73 338.1C997.73 338.1 990.53 331.57 990.53 318.9V300.66H981.79V288.47H990.53V274.26H1005.89V288.47H1020.1V300.66H1005.89V317.36C1005.89 322.35 1008.29 324.37 1012.32 324.37C1014.43 324.37 1017.31 323.6 1019.33 322.45L1022.88 334.54V334.55Z" fill="#24323E"/>
</g>
<path id="bluerect1" d="M0 0H1264V611H0V0Z" fill="#24323E"/>
<path id="ahoylogo1" d="M336.5 342C330.833 336.833 318.554 325.436 317 306.5C315.851 292.5 305 277.444 286 278.5C277 279 260 286.4 260 308C260 329.6 277.5 336 288 336C299.5 336 306.839 330.731 313.5 320C321.569 307 309.5 297 328 272L298.5 246.5" stroke="#E0B562" stroke-width="19"/>
<g id="ahoyconnect1">
<path id="A_3" d="M428.08 336.66L423.57 324.95H396.5L391.99 336.66H375L401.88 272.35H418.1L444.98 336.67H428.08V336.66ZM410.03 290.2L401.87 311.32H418.29L410.03 290.2V290.2Z" fill="white"/>
<path id="h_3" d="M499.41 307.1V336.67H484.15V310.37C484.15 304.71 480.79 300.87 475.8 300.87C469.85 300.87 465.91 305 465.91 314.31V336.68H450.55V267.55H465.91V293.08C469.65 289.24 474.65 287.03 480.79 287.03C491.93 287.03 499.41 295 499.41 307.09V307.1Z" fill="white"/>
<path id="o_3" d="M559.89 312.57C559.89 327.83 547.79 338.01 533.49 338.01C519.19 338.01 506.8 327.84 506.8 312.57C506.8 297.3 518.9 287.23 533.49 287.23C548.08 287.23 559.89 297.41 559.89 312.57V312.57ZM545.11 312.57C545.11 305.08 539.45 300.09 533.49 300.09C527.53 300.09 521.59 305.08 521.59 312.57C521.59 320.06 527.25 325.05 533.49 325.05C539.73 325.05 545.11 320.15 545.11 312.57V312.57Z" fill="white"/>
<path id="y_3" d="M590.04 352.98H573.43L581.21 335.03L561.24 288.38H577.75L589.17 316.51L601.36 288.38H617.87L590.03 352.98H590.04Z" fill="white"/>
<path id="C_3" d="M690.72 311.82C687.65 328.45 674.29 338.15 657.26 338.15C637.56 338.15 622.02 323 622.02 303.5C622.02 284 637.56 268.85 657.26 268.85C673.59 268.85 687.45 278.55 690.62 294.29L674.58 298.05C672.5 288.45 665.77 283.79 657.26 283.79C646.77 283.79 638.35 292.21 638.35 303.49C638.35 314.77 646.77 323.29 657.26 323.29C665.67 323.29 672.41 318.54 674.68 308.64L690.72 311.81V311.82Z" fill="white"/>
<path id="o2_3" d="M749.67 312.57C749.67 327.83 737.57 338.01 723.27 338.01C708.97 338.01 696.58 327.84 696.58 312.57C696.58 297.3 708.68 287.23 723.27 287.23C737.86 287.23 749.67 297.41 749.67 312.57V312.57ZM734.89 312.57C734.89 305.08 729.23 300.09 723.27 300.09C717.31 300.09 711.37 305.08 711.37 312.57C711.37 320.06 717.03 325.05 723.27 325.05C729.51 325.05 734.89 320.15 734.89 312.57V312.57Z" fill="white"/>
<path id="n_3" d="M806.5 307.1V336.67H791.24V310.37C791.24 304.71 787.88 300.87 782.99 300.87C776.94 300.87 773.01 305 773.01 314.31V336.68H757.65V288.48H773.01V293.09C776.66 289.25 781.75 287.04 787.79 287.04C799.02 287.04 806.51 295.01 806.51 307.1H806.5Z" fill="white"/>
<path id="n2_3" d="M865.83 307.1V336.67H850.57V310.37C850.57 304.71 847.21 300.87 842.32 300.87C836.27 300.87 832.34 305 832.34 314.31V336.68H816.98V288.48H832.34V293.09C835.99 289.25 841.08 287.04 847.12 287.04C858.35 287.04 865.84 295.01 865.84 307.1H865.83Z" fill="white"/>
<path id="e_3" d="M923.52 316.51H888.19C889.44 322.27 893.37 325.82 898.56 325.82C902.11 325.82 906.24 324.96 908.83 320.25L922.46 323.03C918.33 333.2 909.6 338.1 898.56 338.1C884.64 338.1 873.12 327.83 873.12 312.57C873.12 297.31 884.64 287.04 898.65 287.04C912.66 287.04 923.22 296.83 923.51 312.57V316.51H923.52ZM888.48 307.1H908.35C906.91 301.92 903.07 299.52 898.65 299.52C894.23 299.52 889.91 302.21 888.48 307.1Z" fill="white"/>
<path id="c2_3" d="M965.09 316.22L979.2 319.29C976.8 330.71 966.62 338.1 954.63 338.1C940.23 338.1 928.33 327.83 928.33 312.57C928.33 297.31 940.23 287.04 954.63 287.04C966.34 287.04 976.52 294.24 979.2 305.57L964.8 309.03C963.46 303.17 959.52 300.49 954.63 300.49C947.72 300.49 943.11 305.58 943.11 312.58C943.11 319.58 947.72 324.68 954.63 324.68C959.53 324.68 963.46 322.09 965.09 316.23V316.22Z" fill="white"/>
<path id="t_3" d="M1022.88 334.55C1019.14 336.57 1015.2 338.1 1009.73 338.1C997.73 338.1 990.53 331.57 990.53 318.9V300.66H981.79V288.47H990.53V274.26H1005.89V288.47H1020.1V300.66H1005.89V317.36C1005.89 322.35 1008.29 324.37 1012.32 324.37C1014.43 324.37 1017.31 323.6 1019.33 322.45L1022.88 334.54V334.55Z" fill="white"/>
</g>
</g>
<defs>
<clipPath id="clip0_1_2">
<rect width="1264" height="611" fill="white"/>
</clipPath>
</defs>
</svg>
