<svg width="1264" height="611" viewBox="0 0 1264 611" fill="none" xmlns="http://www.w3.org/2000/svg">
<g id="logo-custom" clip-path="url(#clip0_108_62)">
<rect width="1264" height="611" fill="white"/>
<rect id="Rectangle 1" width="1264" height="611" fill="#E4142C"/>
<g id="blackhand">
<path d="M247 250.635L285.143 393.683L313.528 387.464L291.352 229.312L247 250.635Z" stroke="black" stroke-width="3"/>
<path d="M333.93 387.464L306.432 225.313L358.767 197.326L379.169 380.8L333.93 387.464Z" stroke="black" stroke-width="3"/>
<path d="M374.734 191.106L400.015 380.8L446.585 372.359L431.061 191.106L395.136 180L374.734 191.106Z" stroke="black" stroke-width="3"/>
<path d="M446.585 191.106L468.317 366.584H514V206.211L446.585 191.106Z" stroke="black" stroke-width="3"/>
<path d="M400.015 399.903L404.894 412.786L514 431V380.8L400.015 399.903Z" stroke="black" stroke-width="3"/>
</g>
<g id="whitehand">
<path d="M397.542 183L248 252.215L284.172 392.409L313.728 389.323L304.023 300.71L313.728 296.301L330.932 386.677L378.574 380.946L370.192 283.075L379.897 278.667L397.542 379.183L446.507 372.57L437.244 265L446.507 260.591L465.476 370.366L514 364.634V212.538L397.542 183Z" fill="white"/>
<path d="M404.6 410.925L401.954 397.258L514 384.032V429L404.6 410.925Z" fill="white"/>
</g>
<g id="riotgameswords" clip-path="url(#clip1_108_62)">
<path id="RiotS" d="M1014.57 355.31C1014.37 351.98 1012.74 348.91 1010.08 346.89C1007.43 344.87 1003.74 343.87 999.06 343.87C996.36 343.78 993.66 344.21 991.12 345.14C989.2 345.84 987.52 347.06 986.26 348.66C985.17 350.12 984.58 351.9 984.57 353.73C984.51 355.19 984.86 356.63 985.57 357.9C986.32 359.16 987.36 360.23 988.61 361.01C990.07 361.96 991.65 362.72 993.3 363.28C995.23 363.95 997.19 364.5 999.18 364.94L1007.58 366.89C1011.7 367.77 1015.72 369.08 1019.56 370.8C1022.89 372.29 1025.97 374.29 1028.69 376.73C1031.17 378.99 1033.15 381.75 1034.49 384.83C1035.9 388.15 1036.59 391.73 1036.53 395.34C1036.67 400.8 1035.1 406.17 1032.04 410.69C1028.8 415.18 1024.33 418.64 1019.17 420.64C1012.73 423.13 1005.87 424.31 998.97 424.14C991.97 424.29 985.01 423.08 978.47 420.58C972.96 418.44 968.23 414.7 964.88 409.83C961.64 405.05 959.95 399.08 959.81 391.93H980.64C980.69 397.58 984.26 402.61 989.58 404.53C992.51 405.64 995.62 406.19 998.76 406.13C1001.64 406.19 1004.5 405.72 1007.2 404.75C1009.34 404 1011.23 402.68 1012.69 400.95C1013.97 399.34 1014.68 397.33 1014.68 395.27C1014.7 393.42 1014.06 391.62 1012.88 390.2C1011.43 388.62 1009.64 387.4 1007.63 386.64C1004.8 385.49 1001.88 384.58 998.89 383.93L988.66 381.46C980.5 379.52 974.07 376.45 969.35 372.26C964.63 368.07 962.29 362.39 962.33 355.22C962.18 349.72 963.84 344.32 967.05 339.85C970.41 335.31 974.93 331.75 980.15 329.57C986.16 327.02 992.64 325.76 999.17 325.88C1005.67 325.73 1012.12 326.99 1018.08 329.57C1023.15 331.77 1027.5 335.35 1030.64 339.89C1033.66 344.44 1035.25 349.79 1035.2 355.26L1014.52 355.32H1014.57V355.31Z" fill="white"/>
<path id="RiotE" d="M885.47 422.88V327.24H950.97V344.94H907.08V366.19H942.56V383.9H907.08V405.19H951.07V422.9H885.46L885.47 422.88Z" fill="white"/>
<path id="RiotM" d="M870.06 422.88H848.67V350.17L846.48 350.15L824.88 422.88H803.51L782.49 350.15L779.77 350.17V422.88H758.38V327.24H794.73L813.09 391.34H815.31L833.67 327.24H870.08V422.88H870.06Z" fill="white"/>
<path id="RiotA" d="M715.75 327.25H686.4L654.24 422.88H677.44L683.69 401.91H718.45L724.7 422.88H747.86L715.75 327.25ZM688.66 385.23L699.08 350.18H703.01L713.48 385.23H688.66V385.23Z" fill="white"/>
<path id="RiotG" d="M612.87 371.13V387.14H632.61C632.61 390.39 631.77 393.58 630.18 396.41C628.51 399.23 626.04 401.48 623.08 402.89C619.54 404.51 615.68 405.29 611.8 405.17C607.31 405.29 602.89 404.06 599.12 401.62C595.44 399.07 592.6 395.47 590.96 391.3C588.91 386.08 587.94 380.51 588.08 374.91C587.93 369.35 588.93 363.82 591.02 358.67C592.73 354.56 595.59 351.04 599.26 348.53C602.96 346.13 607.3 344.9 611.71 345C614.01 344.98 616.29 345.28 618.5 345.9C620.47 346.46 622.33 347.36 623.99 348.55C625.57 349.69 626.94 351.1 628.02 352.72C629.16 354.45 630.01 356.35 630.56 358.35H652.45C651.88 353.75 650.38 349.32 648.06 345.32C645.75 341.37 642.72 337.88 639.12 335.05C635.35 332.1 631.1 329.84 626.56 328.34C621.63 326.73 616.46 325.94 611.27 325.98C605.2 325.93 599.17 327.05 593.52 329.27C588.09 331.43 583.18 334.72 579.12 338.92C574.87 343.35 571.58 348.63 569.47 354.4C567.06 361.09 565.89 368.15 566 375.25C566 385.34 567.92 394.04 571.76 401.35C575.39 408.39 580.98 414.23 587.85 418.17C601.97 425.7 618.83 426.1 633.29 419.23C639.46 416.1 644.6 411.26 648.09 405.28C651.68 399.2 653.47 391.93 653.47 383.48V371.11H612.89L612.87 371.14V371.13Z" fill="white"/>
<path id="RiotT" d="M785.88 216.31V234.06H823.03L824.04 237.17C820.9 237.78 815.58 238.72 810.82 241.86V311.98H832.21V234.01H857.08V216.26L785.88 216.31Z" fill="white"/>
<path id="RiotI" d="M681.18 216.31H659.56V311.95H681.18V216.31Z" fill="white"/>
<path id="RiotO" d="M783.78 264.13C783.78 253.64 781.79 244.74 777.81 237.44C774.12 230.43 768.49 224.64 761.6 220.74C747.21 213.08 729.96 213.08 715.57 220.74C708.71 224.64 703.1 230.42 699.41 237.4C695.43 244.76 693.44 253.66 693.44 264.09C693.44 274.52 695.43 283.39 699.41 290.71C703.1 297.73 708.73 303.53 715.62 307.45C730 315.12 747.27 315.12 761.65 307.45C768.54 303.55 774.16 297.75 777.86 290.75C781.84 283.5 783.83 274.63 783.83 264.13H783.78V264.13ZM758.96 280.61C757.36 284.72 754.57 288.25 750.94 290.75C743.38 295.4 733.84 295.4 726.28 290.75C722.65 288.25 719.85 284.72 718.23 280.61C714.42 269.96 714.42 258.31 718.23 247.65C719.85 243.55 722.65 240.02 726.28 237.51C733.84 232.86 743.38 232.86 750.94 237.51C754.56 240.02 757.35 243.55 758.96 247.65C760.99 252.9 761.95 258.5 761.79 264.13C761.95 269.76 760.99 275.36 758.96 280.61Z" fill="white"/>
<path id="RiotR" d="M636.63 276.03H619.86L618.86 272.94C622.05 272.32 627.52 271.36 632.36 268.06C639.24 263.38 643.39 255.61 643.45 247.28C643.6 241.61 642.17 236.02 639.32 231.12C636.54 226.37 632.41 222.56 627.45 220.17C621.64 217.48 615.29 216.18 608.89 216.37H570.31V311.96H591.94V278.62H614.15L625.26 311.95H648.98L636.63 276.03V276.03ZM613.74 258.82C610.8 259.9 607.67 260.41 604.54 260.31H591.94V233.87H604.5C607.64 233.78 610.76 234.31 613.69 235.44C616.01 236.36 617.96 238.01 619.27 240.13C620.6 242.27 621.26 244.76 621.17 247.28C621.27 249.76 620.62 252.22 619.29 254.32C617.98 256.39 616.03 257.97 613.74 258.82V258.82Z" fill="white"/>
</g>
</g>
<defs>
<clipPath id="clip0_108_62">
<rect width="1264" height="611" fill="white"/>
</clipPath>
<clipPath id="clip1_108_62">
<rect width="470.54" height="209.16" fill="white" transform="translate(566 215)"/>
</clipPath>
</defs>
</svg>
