<svg width="1264" height="611" viewBox="0 0 1264 611" fill="none" xmlns="http://www.w3.org/2000/svg">
<g id="logo-custom" clip-path="url(#clip0_108_62)">
<rect width="1264" height="611" fill="white"/>
<rect id="Rectangle 1" width="1264" height="611" fill="#E4142C"/>
<g id="Vector 3">
<path d="M397.542 183L248 252.215L284.172 392.409L313.728 389.323L304.023 300.71L313.728 296.301L330.932 386.677L378.574 380.946L370.192 283.075L379.897 278.667L397.542 379.183L446.507 372.57L437.244 265L446.507 260.591L465.476 370.366L514 364.634V212.538L397.542 183Z" fill="white"/>
<path d="M404.6 410.925L401.954 397.258L514 384.032V429L404.6 410.925Z" fill="white"/>
</g>
<path id="Vector" d="M612.807 373.733V390.42H633.364C633.364 393.807 632.489 397.132 630.833 400.081C629.094 403.021 626.522 405.366 623.439 406.835C619.753 408.524 615.733 409.337 611.693 409.212C607.017 409.337 602.414 408.055 598.488 405.512C594.656 402.854 591.699 399.102 589.991 394.755C587.856 389.315 586.846 383.509 586.992 377.673C586.835 371.878 587.877 366.114 590.053 360.747C591.834 356.463 594.812 352.794 598.634 350.178C602.487 347.677 607.007 346.395 611.599 346.499C613.994 346.478 616.368 346.791 618.67 347.437C620.721 348.021 622.658 348.959 624.387 350.199C626.032 351.387 627.459 352.857 628.584 354.545C629.771 356.348 630.656 358.329 631.229 360.413H654.024C653.431 355.619 651.869 351.001 649.453 346.832C647.047 342.715 643.892 339.078 640.143 336.128C636.217 333.054 631.791 330.698 627.063 329.135C621.929 327.457 616.545 326.633 611.141 326.675C604.82 326.623 598.54 327.79 592.657 330.104C587.002 332.355 581.889 335.784 577.661 340.162C573.235 344.779 569.809 350.282 567.612 356.296C565.102 363.258 563.884 370.617 564.009 378.017C564.009 388.533 566.008 397.601 570.007 405.22C573.787 412.557 579.608 418.644 586.763 422.751C601.467 430.599 619.024 431.016 634.082 423.855C640.507 420.593 645.86 415.549 649.494 409.316C653.233 402.979 655.097 395.402 655.097 386.595V373.702H612.828L612.807 373.733ZM896.683 427.67V327.988H964.892V346.436H919.187V368.584H956.134V387.032H919.187V409.232H964.996V427.68H896.672L896.683 427.67ZM1031.12 357.245C1030.91 353.774 1029.22 350.574 1026.45 348.469C1023.69 346.363 1019.84 345.321 1014.97 345.321C1012.16 345.227 1009.35 345.675 1006.7 346.645C1004.7 347.374 1002.95 348.646 1001.64 350.314C1000.51 351.835 999.892 353.69 999.882 355.598C999.819 357.119 1000.18 358.62 1000.92 359.944C1001.7 361.257 1002.79 362.372 1004.09 363.185C1005.61 364.176 1007.25 364.968 1008.97 365.551C1010.98 366.25 1013.02 366.823 1015.1 367.282L1023.84 369.314C1028.13 370.231 1032.32 371.596 1036.32 373.389C1039.79 374.942 1042.99 377.027 1045.83 379.57C1048.41 381.925 1050.47 384.802 1051.87 388.012C1053.33 391.472 1054.05 395.204 1053.99 398.966C1054.14 404.657 1052.5 410.254 1049.32 414.965C1045.94 419.645 1041.29 423.251 1035.91 425.335C1029.21 427.931 1022.06 429.16 1014.88 428.983C1007.59 429.14 1000.34 427.878 993.529 425.273C987.792 423.042 982.866 419.144 979.377 414.069C976.003 409.087 974.243 402.864 974.098 395.412H995.789C995.841 401.301 999.559 406.543 1005.1 408.545C1008.15 409.701 1011.39 410.275 1014.66 410.212C1017.66 410.275 1020.64 409.785 1023.45 408.774C1025.68 407.992 1027.64 406.616 1029.16 404.813C1030.5 403.135 1031.24 401.04 1031.24 398.893C1031.26 396.965 1030.59 395.089 1029.36 393.609C1027.85 391.962 1025.99 390.691 1023.9 389.899C1020.95 388.7 1017.91 387.752 1014.79 387.074L1004.14 384.5C995.643 382.478 988.947 379.278 984.032 374.911C979.117 370.544 976.68 364.624 976.722 357.151C976.566 351.418 978.294 345.79 981.637 341.131C985.136 336.399 989.843 332.689 995.279 330.417C1001.54 327.759 1008.29 326.446 1015.09 326.571C1021.85 326.415 1028.57 327.728 1034.78 330.417C1040.06 332.71 1044.59 336.441 1047.86 341.173C1051 345.915 1052.66 351.491 1052.61 357.192L1031.07 357.255L1031.12 357.245ZM880.635 427.67H858.361V351.887L856.08 351.867L833.586 427.67H811.333L789.443 351.867L786.611 351.887V427.67H764.336V327.988H802.189L821.309 394.797H823.621L842.74 327.988H880.656V427.67H880.635ZM729.263 427.67H753.381L719.942 327.999H689.378L655.888 427.67H680.048L686.556 405.814H722.754L729.263 427.67ZM691.732 388.429L702.583 351.898H706.676L717.579 388.429H691.732ZM661.428 212.371H683.943V312.052H661.428V212.371ZM790.839 262.211C790.839 273.155 788.766 282.4 784.622 289.956C780.769 297.252 774.916 303.297 767.741 307.362C752.766 315.356 734.782 315.356 719.807 307.362C712.632 303.276 706.769 297.231 702.927 289.915C698.782 282.285 696.71 273.04 696.71 262.17C696.71 251.299 698.782 242.023 702.927 234.352C706.769 227.077 712.611 221.053 719.755 216.988C734.74 209.004 752.704 209.004 767.689 216.988C774.864 221.053 780.727 227.087 784.569 234.394C788.714 242.002 790.786 251.278 790.786 262.211M767.887 262.211C768.053 256.343 767.054 250.507 764.94 245.035C763.263 240.762 760.358 237.083 756.588 234.466C748.715 229.62 738.781 229.62 730.908 234.466C727.128 237.083 724.212 240.762 722.525 245.035C718.557 256.145 718.557 268.288 722.525 279.388C724.212 283.672 727.128 287.351 730.908 289.956C738.781 294.803 748.715 294.803 756.588 289.956C760.368 287.351 763.274 283.672 764.94 279.388C767.054 273.916 768.053 268.079 767.887 262.211ZM614.14 277.303L625.71 312.052H650.411L637.55 274.614H620.086L619.045 271.394C622.367 270.748 628.063 269.747 633.103 266.307C640.268 261.43 644.589 253.331 644.652 244.649C644.808 238.74 643.319 232.914 640.351 227.806C637.456 222.856 633.155 218.885 627.99 216.394C621.94 213.59 615.327 212.235 608.662 212.433H568.487V312.063H591.011V277.314H614.14V277.303ZM613.713 256.677C610.651 257.803 607.392 258.334 604.132 258.23H591.011V230.673H604.091C607.361 230.579 610.61 231.131 613.661 232.309C616.077 233.268 618.108 234.988 619.472 237.197C620.857 239.428 621.544 242.023 621.45 244.649C621.554 247.234 620.878 249.798 619.493 251.987C618.128 254.144 616.098 255.791 613.713 256.677ZM792.973 212.371V230.871H831.66L832.712 234.112C829.442 234.748 823.902 235.728 818.945 239V312.083H841.22V230.819H867.118V212.318L792.973 212.371Z" fill="white"/>
</g>
<defs>
<clipPath id="clip0_108_62">
<rect width="1264" height="611" fill="white"/>
</clipPath>
</defs>
</svg>
