<svg width="1264" height="611" viewBox="0 0 1264 611" fill="none" xmlns="http://www.w3.org/2000/svg">
<g id="pattern-animation">
<rect width="1264" height="611" fill="white"/>
<rect id="Rectangle 1" x="517.5" y="92.5" width="129" height="65" stroke="#E74137" stroke-width="9"/>
<rect id="Rectangle 2" x="671.5" y="92.5" width="128" height="65" stroke="#E74137" stroke-width="9"/>
<rect id="Rectangle 8" x="824.5" y="92.5" width="129" height="65" stroke="#E74137" stroke-width="9"/>
<rect id="Rectangle 9" x="364.5" y="92.5" width="128" height="65" stroke="#E74137" stroke-width="9"/>
<rect id="Rectangle 5" x="509.5" y="272.5" width="129" height="65" stroke="#E74137" stroke-width="9"/>
<rect id="Rectangle 12" x="355.5" y="272.5" width="129" height="65" stroke="#E74137" stroke-width="9"/>
<rect id="Rectangle 13" x="816.5" y="272.5" width="129" height="65" stroke="#E74137" stroke-width="9"/>
<rect id="Rectangle 14" x="740.5" y="362.5" width="128" height="66" stroke="#DB814E" stroke-width="9"/>
<rect id="Rectangle 17" x="893.5" y="362.5" width="128" height="66" stroke="#DB814E" stroke-width="9"/>
<rect id="Rectangle 18" x="279.5" y="362.5" width="128" height="66" stroke="#DB814E" stroke-width="9"/>
<rect id="Rectangle 15" x="586.5" y="362.5" width="128" height="66" stroke="#DB814E" stroke-width="9"/>
<rect id="Rectangle 16" x="433.5" y="362.5" width="129" height="66" stroke="#DB814E" stroke-width="9"/>
<rect id="Rectangle 6" x="663.5" y="272.5" width="128" height="65" stroke="#E74137" stroke-width="9"/>
<rect id="Rectangle 19" x="510.5" y="453.5" width="129" height="65" stroke="#E74137" stroke-width="9"/>
<rect id="Rectangle 20" x="356.5" y="453.5" width="128" height="65" stroke="#E74137" stroke-width="9"/>
<rect id="Rectangle 21" x="817.5" y="453.5" width="128" height="65" stroke="#E74137" stroke-width="9"/>
<rect id="Rectangle 22" x="664.5" y="453.5" width="128" height="65" stroke="#E74137" stroke-width="9"/>
<rect id="Rectangle 3" x="594.5" y="182.5" width="128" height="65" stroke="#DB814E" stroke-width="9"/>
<rect id="Rectangle 7" x="440.5" y="182.5" width="129" height="65" stroke="#DB814E" stroke-width="9"/>
<rect id="Rectangle 4" x="747.5" y="182.5" width="129" height="65" stroke="#DB814E" stroke-width="9"/>
<rect id="Rectangle 10" x="901.5" y="182.5" width="128" height="65" stroke="#DB814E" stroke-width="9"/>
<rect id="Rectangle 11" x="287.5" y="182.5" width="128" height="65" stroke="#DB814E" stroke-width="9"/>
</g>
</svg>
