<svg width="1264" height="611" viewBox="0 0 1264 611" fill="none" xmlns="http://www.w3.org/2000/svg">
<g id="UI-animation">
<rect width="1264" height="611" fill="white"/>
<g id="play-button-svgrepo-com 1" clip-path="url(#clip0_33_2)">
<g id="Group">
<path id="Vector" d="M760.654 299.172L578.787 175.172C576.25 173.452 572.976 173.262 570.265 174.692C567.561 176.122 565.867 178.933 565.867 182V430C565.867 433.067 567.561 435.878 570.273 437.308C571.48 437.953 572.811 438.267 574.133 438.267C575.762 438.267 577.39 437.779 578.787 436.828L760.654 312.828C762.911 311.291 764.267 308.736 764.267 306C764.267 303.264 762.911 300.709 760.654 299.172ZM582.4 414.351V197.649L741.327 306L582.4 414.351Z" fill="black"/>
<path id="Vector_2" d="M632 58C495.253 58 384 169.253 384 306C384 442.747 495.253 554 632 554C768.747 554 880 442.747 880 306C880 169.253 768.747 58 632 58ZM632 537.467C504.371 537.467 400.533 433.629 400.533 306C400.533 178.371 504.371 74.5333 632 74.5333C759.629 74.5333 863.467 178.371 863.467 306C863.467 433.629 759.629 537.467 632 537.467Z" fill="black"/>
</g>
</g>
</g>
<defs>
<clipPath id="clip0_33_2">
<rect width="496" height="496" fill="white" transform="translate(384 58)"/>
</clipPath>
</defs>
</svg>
