<svg width="1264" height="611" viewBox="0 0 1264 611" fill="none" xmlns="http://www.w3.org/2000/svg">
<g id="UI-animation">
<rect width="1264" height="611" fill="white"/>
<circle id="Ellipse 1" cx="597" cy="306" r="189" stroke="black" stroke-width="14"/>
<path id="Polygon 1" d="M707.5 311.543L547.394 409.583C543.063 412.235 537.5 409.118 537.5 404.039L537.5 207.96C537.5 202.882 543.063 199.765 547.394 202.417L707.5 300.457C711.641 302.992 711.641 309.008 707.5 311.543Z" stroke="black" stroke-width="13"/>
<g id="Rectangle 23">
<rect x="669.861" y="79.3258" width="116" height="43" rx="21.5" transform="rotate(75 669.861 79.3258)" fill="#FCFEA2"/>
<rect x="669.861" y="79.3258" width="116" height="43" rx="21.5" transform="rotate(75 669.861 79.3258)" stroke="black" stroke-width="6"/>
<rect x="669.861" y="79.3258" width="116" height="43" rx="21.5" transform="rotate(75 669.861 79.3258)" stroke="black" stroke-opacity="0.2" stroke-width="6"/>
<rect x="669.861" y="79.3258" width="116" height="43" rx="21.5" transform="rotate(75 669.861 79.3258)" stroke="black" stroke-opacity="0.2" stroke-width="6"/>
<rect x="669.861" y="79.3258" width="116" height="43" rx="21.5" transform="rotate(75 669.861 79.3258)" stroke="black" stroke-opacity="0.2" stroke-width="6"/>
<rect x="669.861" y="79.3258" width="116" height="43" rx="21.5" transform="rotate(75 669.861 79.3258)" stroke="black" stroke-opacity="0.2" stroke-width="6"/>
</g>
<g id="Rectangle 24">
<rect x="825.038" y="134.235" width="116" height="43" rx="21.5" transform="rotate(127.954 825.038 134.235)" fill="#FCFEA2"/>
<rect x="825.038" y="134.235" width="116" height="43" rx="21.5" transform="rotate(127.954 825.038 134.235)" stroke="black" stroke-width="6"/>
<rect x="825.038" y="134.235" width="116" height="43" rx="21.5" transform="rotate(127.954 825.038 134.235)" stroke="black" stroke-opacity="0.2" stroke-width="6"/>
<rect x="825.038" y="134.235" width="116" height="43" rx="21.5" transform="rotate(127.954 825.038 134.235)" stroke="black" stroke-opacity="0.2" stroke-width="6"/>
<rect x="825.038" y="134.235" width="116" height="43" rx="21.5" transform="rotate(127.954 825.038 134.235)" stroke="black" stroke-opacity="0.2" stroke-width="6"/>
<rect x="825.038" y="134.235" width="116" height="43" rx="21.5" transform="rotate(127.954 825.038 134.235)" stroke="black" stroke-opacity="0.2" stroke-width="6"/>
</g>
<g id="Rectangle 25">
<rect x="870" y="285" width="116" height="43" rx="21.5" transform="rotate(-180 870 285)" fill="#FCFEA2"/>
<rect x="870" y="285" width="116" height="43" rx="21.5" transform="rotate(-180 870 285)" stroke="black" stroke-width="6"/>
<rect x="870" y="285" width="116" height="43" rx="21.5" transform="rotate(-180 870 285)" stroke="black" stroke-opacity="0.2" stroke-width="6"/>
<rect x="870" y="285" width="116" height="43" rx="21.5" transform="rotate(-180 870 285)" stroke="black" stroke-opacity="0.2" stroke-width="6"/>
<rect x="870" y="285" width="116" height="43" rx="21.5" transform="rotate(-180 870 285)" stroke="black" stroke-opacity="0.2" stroke-width="6"/>
<rect x="870" y="285" width="116" height="43" rx="21.5" transform="rotate(-180 870 285)" stroke="black" stroke-opacity="0.2" stroke-width="6"/>
</g>
<g id="Rectangle 26">
<rect x="766.902" y="425.861" width="116" height="43" rx="21.5" transform="rotate(-120 766.902 425.861)" fill="#FCFEA2"/>
<rect x="766.902" y="425.861" width="116" height="43" rx="21.5" transform="rotate(-120 766.902 425.861)" stroke="black" stroke-width="6"/>
<rect x="766.902" y="425.861" width="116" height="43" rx="21.5" transform="rotate(-120 766.902 425.861)" stroke="black" stroke-opacity="0.2" stroke-width="6"/>
<rect x="766.902" y="425.861" width="116" height="43" rx="21.5" transform="rotate(-120 766.902 425.861)" stroke="black" stroke-opacity="0.2" stroke-width="6"/>
<rect x="766.902" y="425.861" width="116" height="43" rx="21.5" transform="rotate(-120 766.902 425.861)" stroke="black" stroke-opacity="0.2" stroke-width="6"/>
<rect x="766.902" y="425.861" width="116" height="43" rx="21.5" transform="rotate(-120 766.902 425.861)" stroke="black" stroke-opacity="0.2" stroke-width="6"/>
</g>
<g id="Ellipse 2" filter="url(#filter0_d_33_2)">
<circle cx="702" cy="259" r="38" fill="#F9F6F6"/>
</g>
</g>
<defs>
<filter id="filter0_d_33_2" x="660" y="221" width="84" height="84" filterUnits="userSpaceOnUse" color-interpolation-filters="sRGB">
<feFlood flood-opacity="0" result="BackgroundImageFix"/>
<feColorMatrix in="SourceAlpha" type="matrix" values="0 0 0 0 0 0 0 0 0 0 0 0 0 0 0 0 0 0 127 0" result="hardAlpha"/>
<feOffset dy="4"/>
<feGaussianBlur stdDeviation="2"/>
<feComposite in2="hardAlpha" operator="out"/>
<feColorMatrix type="matrix" values="0 0 0 0 0 0 0 0 0 0 0 0 0 0 0 0 0 0 0.25 0"/>
<feBlend mode="normal" in2="BackgroundImageFix" result="effect1_dropShadow_33_2"/>
<feBlend mode="normal" in="SourceGraphic" in2="effect1_dropShadow_33_2" result="shape"/>
</filter>
</defs>
</svg>
